<svg width="200" height="200" viewBox="0 0 200 200" fill="none" xmlns="http://www.w3.org/2000/svg">
<g clip-path="url(#clip0_3891_1735)">
<path d="M166.21 0H33.7899C15.1283 0 0 15.1283 0 33.7899V166.21C0 184.872 15.1283 200 33.7899 200H166.21C184.872 200 200 184.872 200 166.21V33.7899C200 15.1283 184.872 0 166.21 0Z" fill="#1A1A1A"/>
<path d="M148.476 109.012C142.366 102.902 142.366 92.956 148.476 86.8461L171.714 63.6083L182.461 74.3558L158.888 97.9291L182.461 121.502L171.714 132.25L148.476 109.012Z" fill="#FD7E14"/>
<path d="M54.173 136.692C44.3821 136.657 35.1821 132.816 28.2659 125.88C21.3496 118.938 17.5435 109.723 17.5435 99.9274V67.3544H32.7432V99.9274C32.7432 111.822 42.4189 121.497 54.3132 121.497C60.0726 121.497 65.4914 119.254 69.563 115.177C73.6396 111.106 75.8833 105.687 75.8833 99.9274V87.5272C75.8833 79.3139 79.9949 71.7265 86.8811 67.2292C90.8125 64.6601 95.385 63.3029 100.103 63.3029C103.027 63.3029 105.882 63.8187 108.591 64.8353C111.651 65.9822 114.411 67.71 116.785 69.9687L133.662 86.8461C139.772 92.956 139.772 102.897 133.662 109.012L110.424 132.25L99.6769 121.502L123.25 97.9291L106.728 81.4073C106.563 81.232 106.388 81.0517 106.208 80.8864C104.54 79.3489 102.371 78.5076 100.103 78.5076C95.1295 78.5076 91.083 82.5541 91.083 87.5272V99.6319C91.083 104.154 90.2666 108.586 88.649 112.803C85.9997 119.725 81.4022 125.654 75.3424 129.951C69.1323 134.358 61.8605 136.687 54.3132 136.687H54.178L54.173 136.692Z" fill="#FD7E14"/>
</g>
<defs>
<clipPath id="clip0_3891_1735">
<rect width="200" height="200" fill="white"/>
</clipPath>
</defs>
</svg>
