<svg width="81" height="80" viewBox="0 0 81 80" fill="none" xmlns="http://www.w3.org/2000/svg">
<rect x="0.832031" width="80" height="80" rx="20" fill="#2A313A"/>
<path d="M40.8324 57.9332C39.0157 57.9332 37.2157 57.3999 35.799 56.3499L28.6324 50.9999C26.7324 49.5832 25.249 46.6166 25.249 44.2666V31.8666C25.249 29.2999 27.1324 26.5666 29.549 25.6666L37.8657 22.5499C39.5157 21.9332 42.1157 21.9332 43.7657 22.5499L52.0824 25.6666C54.499 26.5666 56.3824 29.2999 56.3824 31.8666V44.2499C56.3824 46.6166 54.899 49.5666 52.999 50.9832L45.8324 56.3332C44.449 57.3999 42.649 57.9332 40.8324 57.9332ZM38.749 24.8999L30.4324 28.0166C29.0157 28.5499 27.7657 30.3499 27.7657 31.8832V44.2666C27.7657 45.8499 28.8824 48.0666 30.1324 48.9999L37.299 54.3499C39.2157 55.7832 42.449 55.7832 44.3824 54.3499L51.549 48.9999C52.8157 48.0499 53.9157 45.8499 53.9157 44.2666V31.8666C53.9157 30.3499 52.6657 28.5499 51.249 27.9999L42.9324 24.8832C41.799 24.4832 39.8657 24.4832 38.749 24.8999Z" fill="#FD7E14"/>
<path d="M38.5991 43.7167C38.2824 43.7167 37.9658 43.6 37.7158 43.35L35.0324 40.6667C34.5491 40.1834 34.5491 39.3834 35.0324 38.9C35.5158 38.4167 36.3158 38.4167 36.7991 38.9L38.5991 40.7L44.8824 34.4167C45.3658 33.9334 46.1658 33.9334 46.6491 34.4167C47.1324 34.9 47.1324 35.7 46.6491 36.1834L39.4824 43.35C39.2324 43.6 38.9158 43.7167 38.5991 43.7167Z" fill="#FD7E14"/>
</svg>
