<svg width="18" height="18" viewBox="0 0 18 18" fill="none" xmlns="http://www.w3.org/2000/svg">
<g clip-path="url(#clip0_2613_658)">
<path d="M16.3125 0.42194H1.6875C1.35567 0.418563 1.03605 0.546962 0.798777 0.778963C0.561503 1.01096 0.425955 1.32762 0.421875 1.65944V16.3435C0.426693 16.6748 0.562565 16.9908 0.799758 17.2222C1.03695 17.4536 1.35615 17.5816 1.6875 17.5782H16.3125C16.6444 17.5808 16.9638 17.452 17.2009 17.2198C17.4381 16.9877 17.5737 16.6711 17.5781 16.3393V1.65522C17.5722 1.32437 17.4359 1.00923 17.1989 0.778292C16.962 0.547356 16.6434 0.419293 16.3125 0.42194Z" fill="#4D84FF"/>
<path d="M2.96153 6.85254H5.50825V15.0468H2.96153V6.85254ZM4.2356 2.77441C4.52769 2.77441 4.81323 2.86105 5.05608 3.02336C5.29893 3.18567 5.48818 3.41636 5.5999 3.68625C5.71161 3.95613 5.74077 4.25309 5.68368 4.53956C5.6266 4.82602 5.48583 5.08912 5.27919 5.29556C5.07254 5.50201 4.80931 5.64252 4.5228 5.69934C4.23628 5.75615 3.93935 5.72671 3.66957 5.61474C3.39978 5.50276 3.16927 5.31329 3.0072 5.07029C2.84512 4.82728 2.75876 4.54167 2.75903 4.24957C2.75941 3.85821 2.91514 3.483 3.19201 3.20639C3.46887 2.92979 3.84423 2.77441 4.2356 2.77441ZM7.10575 6.85254H9.547V7.97754H9.58075C9.92106 7.33348 10.7508 6.65426 11.9897 6.65426C14.5687 6.64863 15.0468 8.34598 15.0468 10.5468V15.0468H12.5001V11.06C12.5001 10.1108 12.4833 8.88879 11.1768 8.88879C9.87044 8.88879 9.64825 9.92379 9.64825 10.9982V15.0468H7.10575V6.85254Z" fill="white"/>
</g>
<defs>
<clipPath id="clip0_2613_658">
<rect width="18" height="18" fill="white"/>
</clipPath>
</defs>
</svg>
